<svg xmlns="http://www.w3.org/2000/svg" viewBox="0 0 155 110" height="110" width="155"><defs><style>.line{fill:none;stroke:#fff;stroke-miterlimit:10;}</style></defs><path fill="#fff" d="M153,2V108H2V2H153m2-2H0V110H155V0Z"/><path fill="#fff" d="M148,7v96H7V7H148m2-2H5V105H150V5Z"/><polyline class="line" points="9.5 103.5 53.25 59.75 76.48 82.98 120.67 38.78 149 67.11"/><path fill="#fff" d="M17.17,42.25V40.62c.92-.14,2-.27,2.41-.34,1-2.18,5.1-13.67,6.63-17.92a4.51,4.51,0,0,0,.27-2.28h4.15c.51,1.53,5.81,16.25,7.41,20.26.61,0,1.5.14,2.31.27v1.63H30.46V40.62c.54-.07,1.84-.24,2.72-.31L31,34.26H23.9l-2,6.05c1.05.07,2.28.17,3.23.31v1.63Zm13.33-9.79-3.06-8.7-3,8.7Z"/><path fill="#fff" d="M56.94,29c-.78-.07-2.28-.17-3.13-.17a5,5,0,0,1,.75,2.69c0,3.43-2.79,5.37-6.46,5.37a8.59,8.59,0,0,1-2.48-.34,3.46,3.46,0,0,0-.44,1.26c0,1,1.12,1.33,1.7,1.36,2.07.2,4.08.24,5.71.41s4.28,1.22,4.28,4.32c0,3.84-4,6.73-8.7,6.73-5.37,0-7.51-2.86-7.51-4.69,0-.68,1.12-2.07,3.3-3.88a3.25,3.25,0,0,1-1.67-2.69,9.66,9.66,0,0,1,2.07-3.26,4.79,4.79,0,0,1-2.86-4.52c0-2.52,2-5.37,6.56-5.37a10.42,10.42,0,0,1,4,.78,1.17,1.17,0,0,0,.54.1c1-.14,3.33-.41,4.49-.48ZM46.17,42.83a4.62,4.62,0,0,1-1-.2,4.6,4.6,0,0,0-1.05,2.62c0,1.9,1.84,3.71,5,3.71s4.39-1.67,4.39-3.37c0-1.53-1.19-2.18-2.75-2.35C49.53,43.13,47.73,43,46.17,42.83Zm4.25-11.15c0-2.14-.61-4-2.52-4-1.67,0-2.31,1.7-2.31,3.77s.75,4.15,2.58,4.15C49.74,35.55,50.42,33.92,50.42,31.68Z"/></svg>
